# xmcd
#
# Track frame offsets: 
#        150
#        11775
#        22050
#        35250
#        46500
#        57225
#        71400
#        83362
#        93862
#        108000
#        122775
#        134325
#        144037
#        156150
#        168300
#        182175
#        195037
#        206540
#        217315
#        229462
#
# Disc length: 3218 seconds
#
# Revision: 2
# Processed by: cddbd v1.5.2PL0 Copyright (c) Steve Scherf et al.
# Submitted via: ExactAudioCopy v1.0b1
#
DISCID=040c9014
DTITLE=Blind Willie McTell - Pig 'N Whistle Red
DYEAR=2003
DGENRE=Blues
TTITLE0=Don't Forget It (mono)
TTITLE1=Good Little Thing (mono)
TTITLE2=You Can't Get Stuff No More (mono)
TTITLE3=Love Changin' Blues (mono)
TTITLE4=Savannah Mama (mono)
TTITLE5=Talkin' To You, Mama (mono)
TTITLE6=East St. Louis (mono)
TTITLE7=A To Z Blues (mono)
TTITLE8=Wee Midnight Hours (mono)
TTITLE9=Brown Skin Woman (mono)
TTITLE10=I Keep On Drinkin' (mono)
TTITLE11=Pal Of Mine (take 1) (mono)
TTITLE12=Pal Of Mine (take 2) (mono)
TTITLE13=Honey It Must Be Love (mono)
TTITLE14=Sending Up My Timber (take 1) (mono)
TTITLE15=Sending Up My Timber (take 2) (mono)
TTITLE16=Lord Have Mercy If You Please (mono)
TTITLE17=Climbing High Mountains (mono)
TTITLE18=It's My Desire (mono)
TTITLE19=Hide Me In Thy Bosom (mono)
EXTD=Submitted 1/98\nJmccoy@efn.org
EXTT0=
EXTT1=
EXTT2=
EXTT3=
EXTT4=
EXTT5=
EXTT6=
EXTT7=
EXTT8=
EXTT9=
EXTT10=
EXTT11=
EXTT12=
EXTT13=
EXTT14=
EXTT15=
EXTT16=
EXTT17=
EXTT18=
EXTT19=
PLAYORDER=
